<?xml version="1.0" standalone="no"?>
<!DOCTYPE svg PUBLIC "-//W3C//DTD SVG 20010904//EN"
 "http://www.w3.org/TR/2001/REC-SVG-20010904/DTD/svg10.dtd">
<svg version="1.0" xmlns="http://www.w3.org/2000/svg"
 width="240.000000pt" height="240.000000pt" viewBox="0 0 240.000000 240.000000"
 preserveAspectRatio="xMidYMid meet">
<metadata>
Created by potrace 1.14, written by Peter Selinger 2001-2017
</metadata>
<g transform="translate(0.000000,240.000000) scale(0.100000,-0.100000)"
fill="#000000" stroke="none">
<path d="M1149 1743 c13 -3 45 -26 70 -52 41 -43 82 -111 214 -355 63 -118
118 -218 150 -276 17 -30 42 -77 56 -104 14 -27 31 -48 36 -47 6 1 36 49 68
106 l58 105 -69 133 c-38 72 -109 209 -157 302 -48 94 -92 176 -98 183 -7 9
-54 12 -181 11 -94 -1 -160 -4 -147 -6z"/>
<path d="M2059 1743 c0 -5 -1 -244 -2 -533 l0 -525 153 -3 153 -3 -26 21 c-16
13 -29 36 -33 58 -4 20 -7 233 -7 473 0 470 1 480 53 506 21 11 1 13 -132 13
-87 0 -158 -3 -159 -7z"/>
<path d="M44 1729 c-2 -4 3 -10 11 -13 39 -15 44 -58 45 -411 1 -187 3 -355 6
-374 6 -50 47 -131 85 -169 69 -70 189 -110 339 -114 93 -2 137 5 190 32 60
31 127 110 144 170 4 14 -5 3 -19 -25 -51 -95 -132 -152 -233 -161 -113 -11
-197 37 -243 139 -24 52 -24 54 -27 487 -2 239 -5 436 -7 438 -7 7 -287 7
-291 1z"/>
<path d="M822 1728 c-15 -6 -15 -7 -1 -7 22 -1 44 -37 54 -86 l7 -40 13 50 c8
30 23 57 39 70 l25 20 -60 0 c-33 0 -67 -3 -77 -7z"/>
<path d="M1261 907 c-2 -80 -63 -185 -125 -212 -28 -12 -15 -13 134 -14 l165
-1 -42 19 c-53 24 -92 82 -115 170 -10 41 -17 55 -17 38z"/>
</g>
</svg>
